<svg xmlns="http://www.w3.org/2000/svg" xmlns:xlink="http://www.w3.org/1999/xlink" id="elastic" width="2500" height="2500" viewBox="0 0 80 80">
  <defs>
    <circle id="SVGID_1_" cx="40" cy="40" r="32"></circle>
  </defs>
  <clipPath id="SVGID_2_">
    <use xlink:href="#SVGID_1_" overflow="visible"></use>
  </clipPath>
  <path d="M53.7 26H10c-1.1 0-2-.9-2-2V10c0-1.1.9-2 2-2h57c1.1 0 2 .9 2 2v.7C68.9 19.1 62.1 26 53.7 26z" style="clip-path:url(#SVGID_2_);fill:#f0bf1a"></path>
  <defs>
    <circle id="SVGID_3_" cx="40" cy="40" r="32"></circle>
  </defs>
  <clipPath id="SVGID_4_">
    <use xlink:href="#SVGID_3_" overflow="visible"></use>
  </clipPath>
  <path d="M69.1 72H8.2V54h45.7c8.4 0 15.2 6.8 15.2 15.2V72z" style="clip-path:url(#SVGID_4_);fill:#3ebeb0"></path>
  <g>
    <defs>
      <circle id="SVGID_5_" cx="40" cy="40" r="32"></circle>
    </defs>
    <clipPath id="SVGID_6_">
      <use xlink:href="#SVGID_5_" overflow="visible"></use>
    </clipPath>
    <path d="M50.1 49H4.8V31h45.3c5 0 9 4 9 9s-4.1 9-9 9z" style="clip-path:url(#SVGID_6_);fill:#07a5de"></path>
  </g>
  <g>
    <defs>
      <circle id="SVGID_7_" cx="40" cy="40" r="32"></circle>
    </defs>
    <clipPath id="SVGID_8_">
      <use xlink:href="#SVGID_7_" overflow="visible"></use>
    </clipPath>
    <path d="M36 31H6.4v18H36c.7-2.7 1.1-5.7 1.1-9s-.4-6.3-1.1-9z" style="clip-path:url(#SVGID_8_);fill:#231f20"></path>
  </g>
  <path d="M23.9 12.3c-5.4 3.2-9.9 8-12.7 13.7h23.6c-2.4-5.5-6.2-10.1-10.9-13.7z" style="fill:#d7a229"></path>
  <path d="M24.9 68.2c4.6-3.7 8.3-8.6 10.6-14.2H11.2c3 6 7.8 11 13.7 14.2z" style="fill:#019b8f"></path>
  <path d="M0 0h80v80H0z" style="fill:none"></path>
</svg>
