<?xml version="1.0" encoding="UTF-8"?>
<!DOCTYPE svg PUBLIC "-//W3C//DTD SVG 1.1//EN" "http://www.w3.org/Graphics/SVG/1.1/DTD/svg11.dtd">
<!-- Creator: CorelDRAW -->
<svg xmlns="http://www.w3.org/2000/svg" xml:space="preserve" width="2048px" height="2048px" style="shape-rendering:geometricPrecision; text-rendering:geometricPrecision; image-rendering:optimizeQuality; fill-rule:evenodd; clip-rule:evenodd"
viewBox="0 0 2048 2048"
 xmlns:xlink="http://www.w3.org/1999/xlink">
 <defs>
  <style type="text/css">
   <![CDATA[
    .fil2 {fill:none}
    .fil1 {fill:#303F9F}
    .fil5 {fill:#37474F}
    .fil0 {fill:#3F51B5}
    .fil3 {fill:#9C0000}
    .fil6 {fill:#BF0000}
    .fil7 {fill:#D50000}
    .fil4 {fill:#E8E8D0}
   ]]>
  </style>
   <clipPath id="id0">
    <path d="M1024 -0.0011811c565.541,0 1024,458.461 1024,1024 0,565.541 -458.461,1024 -1024,1024 -565.541,0 -1024,-458.461 -1024,-1024 0,-565.541 458.461,-1024 1024,-1024z"/>
   </clipPath>
 </defs>
 <g id="Layer_x0020_1">
  <metadata id="CorelCorpID_0Corel-Layer"/>
  <path class="fil0" d="M1024 -0.0011811c565.541,0 1024,458.461 1024,1024 0,565.541 -458.461,1024 -1024,1024 -565.541,0 -1024,-458.461 -1024,-1024 0,-565.541 458.461,-1024 1024,-1024z"/>
  <g style="clip-path:url(#id0)">
   <g id="_466419088">
    <g>
     <polygon id="_4625505281" class="fil1" points="1490.37,658.602 2626.25,1794.48 2626.25,1990.65 1490.37,854.767 "/>
     <polygon id="_462550624" class="fil1" points="464.217,919.629 1600.1,2055.51 1599.88,2055.51 464,919.629 "/>
     <polygon id="_462550744" class="fil1" points="1580.87,1496.1 2716.75,2631.99 2716.16,2632.87 2715.51,2633.71 2714.81,2634.51 2714.07,2635.26 2713.28,2635.97 2712.45,2636.63 2711.58,2637.23 2710.67,2637.79 2709.72,2638.28 2708.74,2638.72 2707.73,2639.1 2706.69,2639.41 2705.63,2639.66 2704.54,2639.84 2703.43,2639.95 2702.3,2639.99 1617.19,2639.99 1616.06,2639.95 1614.95,2639.84 1613.86,2639.66 1612.8,2639.41 1611.76,2639.1 1610.75,2638.72 1609.77,2638.28 1608.83,2637.79 1607.92,2637.23 1607.04,2636.63 1606.21,2635.97 470.329,1500.09 471.161,1500.74 472.034,1501.35 472.944,1501.9 473.889,1502.4 474.868,1502.84 475.878,1503.21 476.917,1503.53 477.981,1503.78 479.068,1503.96 480.179,1504.07 481.307,1504.1 1566.42,1504.1 1567.55,1504.07 1568.66,1503.96 1569.75,1503.78 1570.81,1503.53 1571.85,1503.21 1572.86,1502.84 1573.84,1502.4 1574.78,1501.9 1575.69,1501.35 1576.57,1500.74 1577.4,1500.09 1578.19,1499.38 1578.93,1498.62 1579.63,1497.82 1580.28,1496.98 "/>
     <polygon id="_462550504" class="fil1" points="1583.51,919.629 2719.39,2055.51 2719.39,2622.9 2719.35,2624.14 2719.22,2625.35 2719,2626.54 2718.7,2627.7 2718.32,2628.83 2717.87,2629.92 2717.35,2630.97 2716.75,2631.99 1580.87,1496.1 1581.47,1495.09 1581.99,1494.04 1582.44,1492.95 1582.82,1491.82 1583.12,1490.66 1583.33,1489.47 1583.47,1488.25 1583.51,1487.01 "/>
     <polygon id="_462546832" class="fil1" points="1584,919.629 2719.88,2055.51 2719.39,2055.51 1583.51,919.629 "/>
    </g>
    <path id="_466418992" class="fil1" d="M1583.51 919.629l0 567.385c0,3.33307 -0.968505,6.45237 -2.6374,9.08859 -3.03425,4.79764 -8.38701,7.99961 -14.4532,7.99961l-1085.11 0c-6.06497,0 -11.4177,-3.20197 -14.4532,-7.99961 -1.6689,-2.63622 -2.63622,-5.75552 -2.63622,-9.08859l0 -567.232 0 -0.153543 -0.217323 0 93.6284 -64.8957 0 -196.132 282.966 0 153.944 -106.702c16.1421,-11.1874 43.3937,-10.565 60.6189,1.36654l152.052 105.336 283.162 0 0 196.165 93.6296 64.8626 -0.490158 0z"/>
   </g>
  </g>
  <path class="fil2" d="M1024 -0.0011811c565.541,0 1024,458.461 1024,1024 0,565.541 -458.461,1024 -1024,1024 -565.541,0 -1024,-458.461 -1024,-1024 0,-565.541 458.461,-1024 1024,-1024z"/>
  <path class="fil3" d="M1583.51 919.629l0 567.385c0,9.39922 -7.69016,17.0882 -17.0906,17.0882l-1085.11 0c-9.39922,0 -17.0894,-7.68898 -17.0894,-17.0882l0 -567.385 -0.217323 0 530.539 -367.729c16.1421,-11.1874 43.3937,-10.565 60.6189,1.36654l528.844 366.363 -0.490158 0z"/>
  <rect class="fil4" x="557.628" y="658.603" width="932.744" height="610.293"/>
  <path class="fil5" d="M1088.42 1113.66c-22.0914,25.2721 -52.4622,42.9237 -86.7509,42.9237 -2.31378,0 -4.62756,-0.0968505 -6.93544,-0.261024 -31.3276,-2.2252 -57.7973,-19.2272 -76.0808,-44.3504 -17.2441,-23.6965 -26.0622,-52.8591 -27.7666,-82.0064l-0.349607 0 0 -10.578c0,-4.46575 0.175984,-8.93032 0.49252,-13.3843 2.63032,-37.004 16.2508,-74.0457 40.2603,-102.556 22.2284,-26.3953 53.3268,-45.0355 88.5627,-45.0355 2.31378,0 4.62756,0.0968505 6.93544,0.261024 27.2504,1.93583 50.8252,15.0508 68.5323,34.9677l2.14725 -34.6642 42.1926 2.48268 -13.9382 225.111c-0.700394,11.3008 3.60827,21.9071 12.9933,28.4918 4.78229,3.35551 10.6429,4.53189 16.4102,4.32048 34.4209,-1.26496 61.9831,-30.7382 75.3532,-60.254 14.4378,-31.8744 18.7335,-75.7276 10.1221,-109.56 -0.105118,-0.409843 -0.222047,-0.818505 -0.33189,-1.22717 -10.1138,-37.4221 -29.9658,-71.5087 -57.3674,-98.9103 -41.8016,-41.8028 -97.9501,-65.0623 -157.076,-65.0623 -59.126,0 -115.273,23.2595 -157.076,65.0623 -41.8016,41.8016 -65.0611,97.9501 -65.0611,157.076 0,59.1248 23.2595,115.273 65.0611,157.075 41.8028,41.8028 97.9501,65.0623 157.076,65.0623 47.3611,0 93.0639,-14.8902 131.255,-42.9083l16.8354 -12.3496 0 52.317 -4.84016 3.1252c-42.8091,27.6378 -92.302,42.1276 -143.25,42.1276 -70.3666,0 -137.244,-27.7075 -186.993,-77.4568 -49.7481,-49.7481 -77.4568,-116.626 -77.4568,-186.992 0,-70.3678 27.7087,-137.245 77.4568,-186.993 49.7493,-49.7493 116.627,-77.4568 186.993,-77.4568 70.3666,0 137.244,27.7075 186.993,77.4568 32.7059,32.7059 56.3741,73.4103 68.3871,118.093 0.197244,0.733465 0.11811,0.464174 0.233858,0.976772 9.67914,43.2756 6.71103,94.4091 -11.3232,135.137 -20.1461,45.4973 -61.3808,85.9631 -113.47,87.8776 -15.0638,0.553937 -29.8441,-3.25512 -42.2303,-11.9457 -12.8988,-9.04961 -21.2292,-21.7547 -25.9961,-35.9918zm-155.57 -90.8623c0.548032,22.5555 6.56693,45.9638 19.9335,64.33 10.8142,14.8618 26.2205,25.6902 44.9363,27.0189 1.31339,0.0933072 2.63386,0.125197 3.94961,0.125197 22.4528,0 42.228,-13.2354 56.2654,-29.9044 18.2717,-21.6969 28.3843,-50.2524 30.3803,-78.3638 0.245669,-3.45827 0.356693,-6.92835 0.356693,-10.3961l0 -3.40985c-0.548032,-22.5567 -6.56812,-45.9638 -19.9335,-64.3312 -10.8142,-14.8606 -26.2205,-25.6902 -44.9363,-27.0177 -1.31339,-0.0933072 -2.63386,-0.125197 -3.94961,-0.125197 -22.4516,0 -42.228,13.2354 -56.2654,29.9044 -18.2717,21.6969 -28.3843,50.2524 -30.3803,78.3627 -0.246851,3.45945 -0.356693,6.92953 -0.356693,10.3973l0 3.40985z"/>
  <path class="fil6" d="M466.854 1496.1l443.312 -303.267 -445.948 -273.053 0 567.232c0,3.33307 0.967324,6.45237 2.63622,9.08859z"/>
  <path class="fil6" d="M1583.51 1487.01l0 -567.385 -0.46063 0 -448.576 275.301 446.399 301.173c1.6689,-2.63622 2.6374,-5.75552 2.6374,-9.08859z"/>
  <path class="fil7" d="M1580.87 1496.1c-3.03425,4.79764 -8.38701,7.99961 -14.4532,7.99961l-1085.11 0c-6.06497,0 -11.4177,-3.20197 -14.4532,-7.99961l527.8 -366.601c16.0677,-11.1591 43.2378,-10.5461 60.3815,1.36181l525.839 365.24z"/>
 </g>
</svg>
