<svg xmlns="http://www.w3.org/2000/svg" xmlns:xlink="http://www.w3.org/1999/xlink" contentStyleType="text/css" data-diagram-type="SEQUENCE" height="267px" preserveAspectRatio="none" style="width:497px;height:267px;background:#FFFFFF;" version="1.1" viewBox="0 0 497 267" width="497px" zoomAndPan="magnify"><defs/><g><g><title>Client</title><rect fill="#000000" fill-opacity="0.00000" height="223.9297" width="8" x="28.2651" y="36.2969"/><line style="stroke:#181818;stroke-width:0.5;stroke-dasharray:5.0,5.0;" x1="32" x2="32" y1="36.2969" y2="260.2266"/></g><g><title>&lt;color #white&gt;Gateway&lt;/color&gt;</title><rect fill="#000000" fill-opacity="0.00000" height="223.9297" width="8" x="192.6943" y="36.2969"/><line style="stroke:#181818;stroke-width:0.5;stroke-dasharray:5.0,5.0;" x1="195.772" x2="195.772" y1="36.2969" y2="260.2266"/></g><g><title>&lt;color #white&gt;API1&lt;/color&gt;</title><rect fill="#000000" fill-opacity="0.00000" height="223.9297" width="8" x="354.9653" y="36.2969"/><line style="stroke:#181818;stroke-width:0.5;stroke-dasharray:5.0,5.0;" x1="358.4375" x2="358.4375" y1="36.2969" y2="260.2266"/></g><g><title>&lt;color #white&gt;API2&lt;/color&gt;</title><rect fill="#000000" fill-opacity="0.00000" height="223.9297" width="8" x="410.021" y="36.2969"/><line style="stroke:#181818;stroke-width:0.5;stroke-dasharray:5.0,5.0;" x1="413.4932" x2="413.4932" y1="36.2969" y2="260.2266"/></g><g><title>&lt;color #white&gt;API3&lt;/color&gt;</title><rect fill="#000000" fill-opacity="0.00000" height="223.9297" width="8" x="465.0767" y="36.2969"/><line style="stroke:#181818;stroke-width:0.5;stroke-dasharray:5.0,5.0;" x1="468.5488" x2="468.5488" y1="36.2969" y2="260.2266"/></g><g class="participant participant-head" data-participant="Client"><rect fill="#E2E2F0" height="30.2969" rx="2.5" ry="2.5" style="stroke:#181818;stroke-width:0.5;" width="54.5303" x="5" y="5"/><text fill="#000000" font-family="sans-serif" font-size="14" lengthAdjust="spacing" textLength="40.5303" x="12" y="24.9951">Client</text></g><g class="participant participant-head" data-participant="Gateway"><rect fill="#70AD47" height="30.2969" rx="2.5" ry="2.5" style="stroke:#181818;stroke-width:0.5;" width="75.8447" x="158.772" y="5"/><text fill="#FFFFFF" font-family="sans-serif" font-size="14" lengthAdjust="spacing" textLength="61.8447" x="165.772" y="24.9951">Gateway</text></g><g class="participant participant-head" data-participant="API1"><rect fill="#4672C4" height="30.2969" rx="2.5" ry="2.5" style="stroke:#181818;stroke-width:0.5;" width="45.0557" x="336.4375" y="5"/><text fill="#FFFFFF" font-family="sans-serif" font-size="14" lengthAdjust="spacing" textLength="31.0557" x="343.4375" y="24.9951">API1</text></g><g class="participant participant-head" data-participant="API2"><rect fill="#4672C4" height="30.2969" rx="2.5" ry="2.5" style="stroke:#181818;stroke-width:0.5;" width="45.0557" x="391.4932" y="5"/><text fill="#FFFFFF" font-family="sans-serif" font-size="14" lengthAdjust="spacing" textLength="31.0557" x="398.4932" y="24.9951">API2</text></g><g class="participant participant-head" data-participant="API3"><rect fill="#4672C4" height="30.2969" rx="2.5" ry="2.5" style="stroke:#181818;stroke-width:0.5;" width="45.0557" x="446.5488" y="5"/><text fill="#FFFFFF" font-family="sans-serif" font-size="14" lengthAdjust="spacing" textLength="31.0557" x="453.5488" y="24.9951">API3</text></g><g class="message" data-participant-1="API1" data-participant-2="Gateway"><polygon fill="#181818" points="207.6943,63.4297,197.6943,67.4297,207.6943,71.4297,203.6943,67.4297" style="stroke:#181818;stroke-width:1;"/><line style="stroke:#181818;stroke-width:1;" x1="201.6943" x2="357.9653" y1="67.4297" y2="67.4297"/><text fill="#000000" font-family="sans-serif" font-size="13" lengthAdjust="spacing" textLength="138.271" x="213.6943" y="62.3638">register link relations</text></g><g class="message" data-participant-1="API2" data-participant-2="Gateway"><polygon fill="#181818" points="207.6943,92.5625,197.6943,96.5625,207.6943,100.5625,203.6943,96.5625" style="stroke:#181818;stroke-width:1;"/><line style="stroke:#181818;stroke-width:1;" x1="201.6943" x2="413.021" y1="96.5625" y2="96.5625"/><text fill="#000000" font-family="sans-serif" font-size="13" lengthAdjust="spacing" textLength="138.271" x="213.6943" y="91.4966">register link relations</text></g><g class="message" data-participant-1="API3" data-participant-2="Gateway"><polygon fill="#181818" points="207.6943,121.6953,197.6943,125.6953,207.6943,129.6953,203.6943,125.6953" style="stroke:#181818;stroke-width:1;"/><line style="stroke:#181818;stroke-width:1;" x1="201.6943" x2="468.0767" y1="125.6953" y2="125.6953"/><text fill="#000000" font-family="sans-serif" font-size="13" lengthAdjust="spacing" textLength="138.271" x="213.6943" y="120.6294">register link relations</text></g><g class="message" data-participant-1="Client" data-participant-2="Gateway"><polygon fill="#181818" points="184.6943,150.8281,194.6943,154.8281,184.6943,158.8281,188.6943,154.8281" style="stroke:#181818;stroke-width:1;"/><line style="stroke:#181818;stroke-width:1;" x1="32.2651" x2="190.6943" y1="154.8281" y2="154.8281"/><text fill="#000000" font-family="sans-serif" font-size="13" lengthAdjust="spacing" textLength="140.4292" x="39.2651" y="149.7622">GET /  (root resource)</text></g><g class="message" data-participant-1="Client" data-participant-2="API1"><polygon fill="#181818" points="346.9653,179.9609,356.9653,183.9609,346.9653,187.9609,350.9653,183.9609" style="stroke:#181818;stroke-width:1;"/><line style="stroke:#181818;stroke-width:1;" x1="32.2651" x2="352.9653" y1="183.9609" y2="183.9609"/><text fill="#000000" font-family="sans-serif" font-size="13" lengthAdjust="spacing" textLength="101.9941" x="39.2651" y="178.895">GET _links[rel1]</text></g><g class="message" data-participant-1="Client" data-participant-2="API2"><polygon fill="#181818" points="402.021,209.0938,412.021,213.0938,402.021,217.0938,406.021,213.0938" style="stroke:#181818;stroke-width:1;"/><line style="stroke:#181818;stroke-width:1;" x1="32.2651" x2="408.021" y1="213.0938" y2="213.0938"/><text fill="#000000" font-family="sans-serif" font-size="13" lengthAdjust="spacing" textLength="101.9941" x="39.2651" y="208.0278">GET _links[rel2]</text></g><g class="message" data-participant-1="Client" data-participant-2="API3"><polygon fill="#181818" points="457.0767,238.2266,467.0767,242.2266,457.0767,246.2266,461.0767,242.2266" style="stroke:#181818;stroke-width:1;"/><line style="stroke:#181818;stroke-width:1;" x1="32.2651" x2="463.0767" y1="242.2266" y2="242.2266"/><text fill="#000000" font-family="sans-serif" font-size="13" lengthAdjust="spacing" textLength="101.9941" x="39.2651" y="237.1606">GET _links[rel3]</text></g><!--SRC=[ZP5F2u8m68VlVegNlDGXp4qIGWIna6uTkeN4ifKZSR8jh6-VpWB_GHxts_Ey_DujPLSADyxLXR-CWWZ54bQGN46OCPghJXGHHKlo1Y9XvYKyumBCCcMA-jyRpzAfFmFJNGLRn-temM5lZxXrt1ATjOj2fo-YSH7z5V6uY8UYeVij_T-Q6n3qpgIY0ZAMFwfJHXJZkJHqduaWdWGQpMjts6Xt10jWBghFgL39doAXYpQg2pVWkHueJzL4E-uIQ42W7e4718u_]--></g></svg>