<?xml version="1.0" encoding="UTF-8" standalone="no"?>
<!-- Created with Inkscape (http://www.inkscape.org/) -->

<svg
   width="53.330078mm"
   height="50.436199mm"
   viewBox="0 0 53.330078 50.436199"
   version="1.1"
   id="svg8"
   inkscape:export-filename="C:\Work\pointw\pointw-logo150.png"
   inkscape:export-xdpi="71.440002"
   inkscape:export-ydpi="71.440002"
   inkscape:version="1.2.2 (732a01da63, 2022-12-09)"
   sodipodi:docname="pointw-logo.svg"
   xmlns:inkscape="http://www.inkscape.org/namespaces/inkscape"
   xmlns:sodipodi="http://sodipodi.sourceforge.net/DTD/sodipodi-0.dtd"
   xmlns="http://www.w3.org/2000/svg"
   xmlns:svg="http://www.w3.org/2000/svg"
   xmlns:rdf="http://www.w3.org/1999/02/22-rdf-syntax-ns#"
   xmlns:cc="http://creativecommons.org/ns#"
   xmlns:dc="http://purl.org/dc/elements/1.1/">
  <defs
     id="defs2" />
  <sodipodi:namedview
     id="base"
     pagecolor="#ffffff"
     bordercolor="#666666"
     borderopacity="1.0"
     inkscape:pageopacity="0.0"
     inkscape:pageshadow="2"
     inkscape:zoom="3.6203867"
     inkscape:cx="102.75145"
     inkscape:cy="77.063591"
     inkscape:document-units="mm"
     inkscape:current-layer="layer1"
     showgrid="false"
     inkscape:window-width="2048"
     inkscape:window-height="1009"
     inkscape:window-x="4472"
     inkscape:window-y="-8"
     inkscape:window-maximized="1"
     inkscape:showpageshadow="2"
     inkscape:pagecheckerboard="0"
     inkscape:deskcolor="#d1d1d1" />
  <metadata
     id="metadata5">
    <rdf:RDF>
      <cc:Work
         rdf:about="">
        <dc:format>image/svg+xml</dc:format>
        <dc:type
           rdf:resource="http://purl.org/dc/dcmitype/StillImage" />
      </cc:Work>
    </rdf:RDF>
  </metadata>
  <g
     inkscape:label="Layer 1"
     inkscape:groupmode="layer"
     id="layer1"
     transform="translate(-75.654297,-108.48438)">
    <rect
       style="fill:#552b2b;fill-opacity:1;stroke-width:0.264583"
       id="rect3705"
       width="53.330078"
       height="50.436199"
       x="75.654297"
       y="108.48438"
       ry="16.536459"
       rx="26.665039"
       inkscape:export-xdpi="219.09"
       inkscape:export-ydpi="219.09" />
    <g
       id="#000000ff-3"
       transform="matrix(0.2697306,0,0,0.2697306,81.31866,120.1047)"
       style="fill:#917f7f;fill-opacity:1">
      <path
         fill="#000000"
         opacity="1"
         d="m 153.34,0 h 4.42 c 4.15,3.25 5.83,8.34 7.24,13.2 v 1.35 c -1.28,4.07 -2.76,8.08 -3.58,12.28 -2.95,2.4 -6.74,5.53 -10.73,3.5 -2.43,-2.31 -1.97,-6.16 -2.77,-9.2 -1.27,-0.13 -2.53,-0.25 -3.79,-0.38 -6.47,5.96 -9.4,14.58 -15.67,20.71 -7.07,7.34 -9.97,17.51 -17.21,24.76 -3.61,3.67 -6.73,7.85 -7.21,13.16 -0.17,3.73 -3.96,4.77 -6.75,6.12 0.8,7.13 0.91,15.71 -5.21,20.66 -4.01,3.07 -8.67,0.14 -12.59,-1.44 C 77.51,93.53 73.12,82.97 69.27,72.34 60.35,76.52 52.79,83.93 48.55,92.86 c -2.67,5.11 -5.75,9.97 -8.84,14.83 -3.4,0.85 -6.8,1.72 -10.26,2.31 h -1.18 c -7.39,-0.71 -12.11,-7.39 -13.79,-14.05 0.69,-2.44 2.92,-3.96 4.6,-5.68 0.38,-5.1 0.31,-10.21 0.4,-15.31 0.09,-5.68 3.54,-10.44 6.05,-15.29 C 28.62,51.54 31,43.06 35.11,35.34 32.43,34.5 29.31,33.69 27.03,35.9 19.44,42.17 9.42,43.85 0,45.44 v -2.02 c 0.51,-1.59 1.06,-3.16 1.6,-4.74 4.6,-1.27 8.46,-4.05 11.9,-7.26 4.97,-4.67 12.63,-3.76 17.76,-8.11 2.86,-1.94 4.46,-5.07 6.11,-7.99 4.54,-0.09 8.87,-1.72 13.35,-2.08 4.49,1.97 6.87,6.52 8.56,10.87 -3.71,2.77 -7.73,5.55 -9.12,10.24 -4.3,12.12 -8.47,25.72 -3.79,38.37 3.32,0.83 6.22,-1.9 9.04,-3.27 5.94,-3.81 12.99,-8.69 13.54,-16.39 0.67,-6.94 1.43,-14.11 4.82,-20.35 2.92,-5.23 2.44,-11.42 3.04,-17.19 4.63,-2.14 8.98,-4.83 13.47,-7.24 4.16,-2.44 9.93,-1.12 13.18,2.25 1.76,2.93 1.31,6.56 1.69,9.83 -3.74,2.34 -7.82,4.71 -10.01,8.7 -2.9,6.19 -2.77,13.22 -1.88,19.85 -0.39,5.08 0.53,10.07 2.33,14.82 3.52,-0.5 7.96,-0.6 9.68,-4.36 5.8,-12.52 16.45,-21.84 22.89,-33.96 4.96,-1.36 8.61,-5.15 9.81,-10.15 C 139.7,7.69 146.12,2.22 153.34,0 Z"
         id="path10977-5"
         style="fill:#917f7f;fill-opacity:1" />
    </g>
    <g
       id="#000000ff"
       transform="matrix(0.2697306,0,0,0.2697306,80.752279,117.94879)"
       style="fill:#aad4d4;fill-opacity:1">
      <path
         fill="#000000"
         opacity="1"
         d="m 153.34,0 h 4.42 c 4.15,3.25 5.83,8.34 7.24,13.2 v 1.35 c -1.28,4.07 -2.76,8.08 -3.58,12.28 -2.95,2.4 -6.74,5.53 -10.73,3.5 -2.43,-2.31 -1.97,-6.16 -2.77,-9.2 -1.27,-0.13 -2.53,-0.25 -3.79,-0.38 -6.47,5.96 -9.4,14.58 -15.67,20.71 -7.07,7.34 -9.97,17.51 -17.21,24.76 -3.61,3.67 -6.73,7.85 -7.21,13.16 -0.17,3.73 -3.96,4.77 -6.75,6.12 0.8,7.13 0.91,15.71 -5.21,20.66 -4.01,3.07 -8.67,0.14 -12.59,-1.44 C 77.51,93.53 73.12,82.97 69.27,72.34 60.35,76.52 52.79,83.93 48.55,92.86 c -2.67,5.11 -5.75,9.97 -8.84,14.83 -3.4,0.85 -6.8,1.72 -10.26,2.31 h -1.18 c -7.39,-0.71 -12.11,-7.39 -13.79,-14.05 0.69,-2.44 2.92,-3.96 4.6,-5.68 0.38,-5.1 0.31,-10.21 0.4,-15.31 0.09,-5.68 3.54,-10.44 6.05,-15.29 C 28.62,51.54 31,43.06 35.11,35.34 32.43,34.5 29.31,33.69 27.03,35.9 19.44,42.17 9.42,43.85 0,45.44 v -2.02 c 0.51,-1.59 1.06,-3.16 1.6,-4.74 4.6,-1.27 8.46,-4.05 11.9,-7.26 4.97,-4.67 12.63,-3.76 17.76,-8.11 2.86,-1.94 4.46,-5.07 6.11,-7.99 4.54,-0.09 8.87,-1.72 13.35,-2.08 4.49,1.97 6.87,6.52 8.56,10.87 -3.71,2.77 -7.73,5.55 -9.12,10.24 -4.3,12.12 -8.47,25.72 -3.79,38.37 3.32,0.83 6.22,-1.9 9.04,-3.27 5.94,-3.81 12.99,-8.69 13.54,-16.39 0.67,-6.94 1.43,-14.11 4.82,-20.35 2.92,-5.23 2.44,-11.42 3.04,-17.19 4.63,-2.14 8.98,-4.83 13.47,-7.24 4.16,-2.44 9.93,-1.12 13.18,2.25 1.76,2.93 1.31,6.56 1.69,9.83 -3.74,2.34 -7.82,4.71 -10.01,8.7 -2.9,6.19 -2.77,13.22 -1.88,19.85 -0.39,5.08 0.53,10.07 2.33,14.82 3.52,-0.5 7.96,-0.6 9.68,-4.36 5.8,-12.52 16.45,-21.84 22.89,-33.96 4.96,-1.36 8.61,-5.15 9.81,-10.15 C 139.7,7.69 146.12,2.22 153.34,0 Z"
         id="path10977"
         style="fill:#aad4d4;fill-opacity:1" />
    </g>
  </g>
</svg>
