<?xml version="1.0" encoding="UTF-8"?>
<!DOCTYPE svg PUBLIC "-//W3C//DTD SVG 1.1//EN" "http://www.w3.org/Graphics/SVG/1.1/DTD/svg11.dtd">
<!-- Creator: CorelDRAW -->
<svg xmlns="http://www.w3.org/2000/svg" xml:space="preserve" width="2048px" height="2048px" style="shape-rendering:geometricPrecision; text-rendering:geometricPrecision; image-rendering:optimizeQuality; fill-rule:evenodd; clip-rule:evenodd"
viewBox="0 0 2048 2048"
 xmlns:xlink="http://www.w3.org/1999/xlink">
 <defs>
  <style type="text/css">
   <![CDATA[
    .fil2 {fill:none}
    .fil8 {fill:#4DD0E1}
    .fil1 {fill:#512DA8}
    .fil0 {fill:#7E57C2}
    .fil9 {fill:#E0512D}
    .fil5 {fill:#37474F;fill-rule:nonzero}
    .fil4 {fill:#B53D20;fill-rule:nonzero}
    .fil3 {fill:#DD2C00;fill-rule:nonzero}
    .fil6 {fill:#EF6C00;fill-rule:nonzero}
    .fil7 {fill:#FF9800;fill-rule:nonzero}
   ]]>
  </style>
   <clipPath id="id0">
    <path d="M1024 -0.0011811c565.539,0 1024,458.462 1024,1024 0,565.539 -458.462,1024 -1024,1024 -565.539,0 -1024,-458.462 -1024,-1024 0,-565.539 458.462,-1024 1024,-1024z"/>
   </clipPath>
 </defs>
 <g id="Layer_x0020_1">
  <metadata id="CorelCorpID_0Corel-Layer"/>
  <path class="fil0" d="M1024 -0.0011811c565.539,0 1024,458.462 1024,1024 0,565.539 -458.462,1024 -1024,1024 -565.539,0 -1024,-458.462 -1024,-1024 0,-565.539 458.462,-1024 1024,-1024z"/>
  <g style="clip-path:url(#id0)">
   <g id="_451251680">
    <g>
     <polygon id="_3370564321" class="fil1" points="816.057,555.828 1951.94,1691.71 1954.32,1694.33 1956.45,1697.17 1958.3,1700.21 1959.85,1703.43 1961.1,1706.81 1962.01,1710.33 1962.57,1713.98 1962.76,1717.73 1962.76,1718.85 826.88,582.965 826.88,581.85 826.688,578.097 826.127,574.448 825.216,570.925 823.973,567.544 822.416,564.325 820.566,561.287 818.44,558.448 "/>
     <polygon id="_337056168" class="fil1" points="1584,1412.34 2719.88,2548.22 2719.88,2592.09 1584,1456.21 "/>
     <polygon id="_337057224" class="fil1" points="1584,1456.21 2719.88,2592.09 2719.76,2594.47 2719.41,2596.77 2718.84,2599 2718.06,2601.13 2717.08,2603.16 2715.92,2605.08 2714.58,2606.86 2713.08,2608.51 2711.43,2610.01 2709.64,2611.35 2707.73,2612.51 2705.7,2613.49 2703.56,2614.27 2701.34,2614.84 2699.03,2615.2 2696.66,2615.32 1560.77,1479.43 1563.15,1479.31 1565.46,1478.96 1567.68,1478.39 1569.81,1477.61 1571.85,1476.63 1573.76,1475.47 1575.55,1474.13 1577.2,1472.63 1578.7,1470.98 1580.03,1469.19 1581.2,1467.28 1582.18,1465.25 1582.96,1463.12 1583.53,1460.89 1583.88,1458.58 "/>
     <polygon id="_337057032" class="fil1" points="1560.77,1479.43 2696.66,2615.32 1960.27,2615.32 824.388,1479.43 "/>
     <polygon id="_337057320" class="fil1" points="515.77,1478.32 1651.65,2614.2 1648.92,2613.61 1646.23,2612.9 1643.58,2612.08 1640.99,2611.15 1638.45,2610.1 1635.96,2608.96 1633.53,2607.71 1631.16,2606.36 1628.86,2604.92 1626.62,2603.38 1624.45,2601.75 1622.35,2600.03 486.472,1464.15 488.568,1465.87 490.738,1467.5 492.976,1469.03 495.28,1470.48 497.648,1471.83 500.077,1473.08 502.564,1474.22 505.106,1475.26 507.701,1476.2 510.344,1477.02 513.036,1477.73 "/>
     <polygon id="_337056768" class="fil1" points="824.388,1479.43 1960.27,2615.32 1959.17,2617.85 1957.89,2620.28 1956.44,2622.6 1954.83,2624.8 1953.07,2626.87 1951.15,2628.81 1949.11,2630.61 1946.93,2632.25 1944.63,2633.74 1942.22,2635.05 1939.71,2636.18 1937.11,2637.13 1934.42,2637.88 1931.65,2638.43 1928.81,2638.76 1925.92,2638.88 1686.42,2638.88 1683.44,2638.76 1680.54,2638.4 1677.7,2637.83 1674.94,2637.04 1672.28,2636.04 1669.72,2634.85 1667.26,2633.47 1664.93,2631.91 1662.72,2630.19 526.841,1494.31 529.047,1496.03 531.382,1497.59 533.835,1498.97 536.398,1500.16 539.063,1501.15 541.817,1501.94 544.654,1502.52 547.563,1502.87 550.536,1502.99 790.035,1502.99 792.931,1502.88 795.767,1502.54 798.534,1502 801.225,1501.25 803.831,1500.3 806.342,1499.16 808.75,1497.85 811.047,1496.37 813.224,1494.73 815.273,1492.93 817.185,1490.99 818.951,1488.92 820.563,1486.71 822.012,1484.4 823.29,1481.97 "/>
     <polygon id="_337056936" class="fil1" points="1584,606.191 2719.88,1742.07 2719.88,2548.22 1584,1412.34 "/>
     <polygon id="_337056672" class="fil1" points="1578.7,591.417 2714.58,1727.3 2715.92,1729.09 2717.08,1731 2718.06,1733.03 2718.84,1735.17 2719.41,1737.39 2719.76,1739.7 2719.88,1742.07 1584,606.191 1583.88,603.815 1583.53,601.51 1582.96,599.285 1582.18,597.15 1581.2,595.12 1580.03,593.206 "/>
    </g>
    <path id="_451252112" class="fil1" d="M1584 606.191l0 806.146 0 43.8721c0,12.8268 -10.3996,23.2264 -23.2264,23.2264l-736.387 0c-5.35867,13.7504 -18.7654,23.5583 -34.3524,23.5583l-239.499 0c-16.0051,0 -29.7107,-10.3406 -34.7658,-24.6709 -29.3953,-5.69528 -51.7701,-31.7173 -51.7701,-62.7119l0 -3.27402 0 -765.501c0,-30.261 21.326,-55.78 49.6914,-62.2725l0 -2.71181c0,-20.2654 16.5791,-36.8445 36.8445,-36.8445l239.499 0c20.2654,0 36.8445,16.5791 36.8445,36.8445l0 1.11496 733.895 0c12.8268,0 23.2264,10.3984 23.2264,23.2252z"/>
   </g>
  </g>
  <path class="fil2" d="M1024 -0.0011811c565.539,0 1024,458.462 1024,1024 0,565.539 -458.462,1024 -1024,1024 -565.539,0 -1024,-458.462 -1024,-1024 0,-565.539 458.462,-1024 1024,-1024z"/>
  <path class="fil3" d="M808.868 1479.43l751.907 0c12.8268,0 23.2264,-10.3996 23.2264,-23.2264l0 -850.018c0,-12.8268 -10.3996,-23.2252 -23.2264,-23.2252l-754.197 0 -17.8618 0 -260.847 0c-35.1284,0 -63.8693,28.7398 -63.8693,63.8693l0 768.775c0,35.1284 28.741,63.8693 63.8693,63.8693l278.708 0c0.767717,0 1.52953,-0.0177165 2.29016,-0.0448819z"/>
  <path class="fil4" d="M808.868 1479.43l751.907 0c12.8268,0 23.2264,-10.3996 23.2264,-23.2264l0 -43.8721 -1120 0 0 3.27402c0,35.1284 28.741,63.8693 63.8693,63.8693l278.708 0c0.767717,0 1.52953,-0.0177165 2.29016,-0.0448819z"/>
  <path class="fil5" d="M905.579 889.556l0 -185.805c0,-12.8268 10.3984,-23.2252 23.2252,-23.2252l510.964 0c12.8268,0 23.2264,10.3984 23.2264,23.2252l0 185.805c0,12.828 -10.3996,23.2264 -23.2264,23.2264l-510.964 0c-12.8268,0 -23.2252,-10.3984 -23.2252,-23.2264z"/>
  <path class="fil6" d="M937.974 969.052c11.0268,-11.028 26.263,-17.85 43.0866,-17.85 16.8236,0 32.0575,6.82205 43.0855,17.85 11.0291,11.028 17.85,26.263 17.85,43.0866 0,16.8236 -6.82087,32.0599 -17.8488,43.0866 -11.0291,11.0291 -26.263,17.8512 -43.0866,17.8512 -16.826,0 -32.0599,-6.82205 -43.0866,-17.8512 -11.0291,-11.0268 -17.8512,-26.2618 -17.8512,-43.0866 0,-16.8236 6.82205,-32.0587 17.8512,-43.0866z"/>
  <path class="fil7" d="M937.974 967.383c11.0268,-9.99686 26.263,-16.1811 43.0866,-16.1811 16.8236,0 32.0575,6.18426 43.0855,16.1811 11.0291,9.99804 17.85,23.8075 17.85,39.0591 0,15.2504 -6.82087,29.0622 -17.8488,39.0591 -11.0291,9.99686 -26.263,16.1811 -43.0866,16.1811 -16.826,0 -32.0599,-6.18426 -43.0866,-16.1811 -11.0291,-9.99686 -17.8512,-23.8075 -17.8512,-39.0591 0,-15.2516 6.82205,-29.061 17.8512,-39.0591z"/>
  <path class="fil6" d="M1141.2 969.052c11.028,-11.028 26.263,-17.85 43.0866,-17.85 16.8248,0 32.0587,6.82205 43.0855,17.85 11.0291,11.028 17.8512,26.263 17.8512,43.0866 0,16.8236 -6.82205,32.0599 -17.85,43.0866 -11.028,11.0291 -26.2618,17.8512 -43.0866,17.8512 -16.8248,0 -32.0587,-6.82205 -43.0866,-17.8512 -11.0291,-11.0268 -17.85,-26.2618 -17.85,-43.0866 0,-16.8236 6.82087,-32.0587 17.85,-43.0866z"/>
  <path class="fil7" d="M1141.2 967.383c11.028,-9.99686 26.263,-16.1811 43.0866,-16.1811 16.8248,0 32.0587,6.18426 43.0855,16.1811 11.0291,9.99804 17.8512,23.8075 17.8512,39.0591 0,15.2504 -6.82205,29.0622 -17.85,39.0591 -11.028,9.99686 -26.2618,16.1811 -43.0866,16.1811 -16.8248,0 -32.0587,-6.18426 -43.0866,-16.1811 -11.0291,-9.99686 -17.85,-23.8075 -17.85,-39.0591 0,-15.2516 6.82087,-29.061 17.85,-39.0591z"/>
  <path class="fil6" d="M1344.43 969.052c11.028,-11.028 26.2642,-17.85 43.0866,-17.85 16.8248,0 32.0587,6.82205 43.0866,17.85 11.028,11.028 17.85,26.263 17.85,43.0866 0,16.8236 -6.82205,32.0599 -17.8488,43.0866 -11.0291,11.0291 -26.263,17.8512 -43.0878,17.8512 -16.8248,0 -32.0587,-6.82205 -43.0866,-17.8512 -11.028,-11.0268 -17.85,-26.2618 -17.85,-43.0866 0,-16.8236 6.82205,-32.0587 17.85,-43.0866z"/>
  <path class="fil7" d="M1344.43 967.383c11.028,-9.99686 26.2642,-16.1811 43.0866,-16.1811 16.8248,0 32.0587,6.18426 43.0866,16.1811 11.028,9.99804 17.85,23.8075 17.85,39.0591 0,15.2504 -6.82205,29.0622 -17.8488,39.0591 -11.0291,9.99686 -26.263,16.1811 -43.0878,16.1811 -16.8248,0 -32.0587,-6.18426 -43.0866,-16.1811 -11.028,-9.99686 -17.85,-23.8075 -17.85,-39.0591 0,-15.2516 6.82205,-29.061 17.85,-39.0591z"/>
  <path class="fil6" d="M937.974 1119.77c11.0268,-11.028 26.263,-17.85 43.0866,-17.85 16.8236,0 32.0575,6.82205 43.0855,17.85 11.0291,11.028 17.85,26.2618 17.85,43.0866 0,16.8236 -6.82087,32.0587 -17.8488,43.0866 -11.0291,11.028 -26.263,17.85 -43.0866,17.85 -16.826,0 -32.0599,-6.82205 -43.0866,-17.85 -11.0291,-11.028 -17.8512,-26.2618 -17.8512,-43.0866 0,-16.8248 6.82205,-32.0587 17.8512,-43.0866z"/>
  <path class="fil7" d="M937.974 1118.1c11.0268,-9.99686 26.263,-16.1811 43.0866,-16.1811 16.8236,0 32.0575,6.18426 43.0855,16.1811 11.0291,9.99686 17.85,23.8075 17.85,39.0591 0,15.2504 -6.82087,29.061 -17.8488,39.0579 -11.0291,9.99804 -26.263,16.1823 -43.0866,16.1823 -16.826,0 -32.0599,-6.18426 -43.0866,-16.1823 -11.0291,-9.99686 -17.8512,-23.8063 -17.8512,-39.0579 0,-15.2516 6.82205,-29.0622 17.8512,-39.0591z"/>
  <path class="fil6" d="M1141.2 1119.77c11.028,-11.028 26.263,-17.85 43.0866,-17.85 16.8248,0 32.0587,6.82205 43.0855,17.85 11.0291,11.028 17.8512,26.2618 17.8512,43.0866 0,16.8236 -6.82205,32.0587 -17.85,43.0866 -11.028,11.028 -26.2618,17.85 -43.0866,17.85 -16.8248,0 -32.0587,-6.82205 -43.0866,-17.85 -11.0291,-11.028 -17.85,-26.2618 -17.85,-43.0866 0,-16.8248 6.82087,-32.0587 17.85,-43.0866z"/>
  <path class="fil7" d="M1141.2 1118.1c11.028,-9.99686 26.263,-16.1811 43.0866,-16.1811 16.8248,0 32.0587,6.18426 43.0855,16.1811 11.0291,9.99686 17.8512,23.8075 17.8512,39.0591 0,15.2504 -6.82205,29.061 -17.85,39.0579 -11.028,9.99804 -26.2618,16.1823 -43.0866,16.1823 -16.8248,0 -32.0587,-6.18426 -43.0866,-16.1823 -11.0291,-9.99686 -17.85,-23.8063 -17.85,-39.0579 0,-15.2516 6.82087,-29.0622 17.85,-39.0591z"/>
  <path class="fil6" d="M1344.43 1119.77c11.028,-11.028 26.2642,-17.85 43.0866,-17.85 16.8248,0 32.0587,6.82205 43.0866,17.85 11.028,11.028 17.85,26.2618 17.85,43.0866 0,16.8236 -6.82205,32.0587 -17.8488,43.0866 -11.0291,11.028 -26.263,17.85 -43.0878,17.85 -16.8248,0 -32.0587,-6.82205 -43.0866,-17.85 -11.028,-11.028 -17.85,-26.2618 -17.85,-43.0866 0,-16.8248 6.82205,-32.0587 17.85,-43.0866z"/>
  <path class="fil7" d="M1344.43 1118.1c11.028,-9.99686 26.2642,-16.1811 43.0866,-16.1811 16.8248,0 32.0587,6.18426 43.0866,16.1811 11.028,9.99686 17.85,23.8075 17.85,39.0591 0,15.2504 -6.82205,29.061 -17.8488,39.0579 -11.0291,9.99804 -26.263,16.1823 -43.0878,16.1823 -16.8248,0 -32.0587,-6.18426 -43.0866,-16.1823 -11.028,-9.99686 -17.85,-23.8063 -17.85,-39.0579 0,-15.2516 6.82205,-29.0622 17.85,-39.0591z"/>
  <path class="fil6" d="M937.974 1270.48c11.0268,-11.028 26.263,-17.85 43.0866,-17.85 16.8236,0 32.0575,6.82205 43.0855,17.85 11.0291,11.028 17.85,26.263 17.85,43.0866 0,16.8236 -6.82087,32.0599 -17.8488,43.0866 -11.0291,11.0291 -26.263,17.8512 -43.0866,17.8512 -16.826,0 -32.0599,-6.82205 -43.0866,-17.8512 -11.0291,-11.0268 -17.8512,-26.2618 -17.8512,-43.0866 0,-16.8236 6.82205,-32.0587 17.8512,-43.0866z"/>
  <path class="fil7" d="M937.974 1268.82c11.0268,-9.99686 26.263,-16.1811 43.0866,-16.1811 16.8236,0 32.0575,6.18426 43.0855,16.1811 11.0291,9.99804 17.85,23.8075 17.85,39.0591 0,15.2504 -6.82087,29.0622 -17.8488,39.0591 -11.0291,9.99686 -26.263,16.1811 -43.0866,16.1811 -16.826,0 -32.0599,-6.18426 -43.0866,-16.1811 -11.0291,-9.99686 -17.8512,-23.8075 -17.8512,-39.0591 0,-15.2516 6.82205,-29.061 17.8512,-39.0591z"/>
  <path class="fil6" d="M1141.2 1270.48c11.028,-11.028 26.263,-17.85 43.0866,-17.85 16.8248,0 32.0587,6.82205 43.0855,17.85 11.0291,11.028 17.8512,26.263 17.8512,43.0866 0,16.8236 -6.82205,32.0599 -17.85,43.0866 -11.028,11.0291 -26.2618,17.8512 -43.0866,17.8512 -16.8248,0 -32.0587,-6.82205 -43.0866,-17.8512 -11.0291,-11.0268 -17.85,-26.2618 -17.85,-43.0866 0,-16.8236 6.82087,-32.0587 17.85,-43.0866z"/>
  <path class="fil7" d="M1141.2 1268.82c11.028,-9.99686 26.263,-16.1811 43.0866,-16.1811 16.8248,0 32.0587,6.18426 43.0855,16.1811 11.0291,9.99804 17.8512,23.8075 17.8512,39.0591 0,15.2504 -6.82205,29.0622 -17.85,39.0591 -11.028,9.99686 -26.2618,16.1811 -43.0866,16.1811 -16.8248,0 -32.0587,-6.18426 -43.0866,-16.1811 -11.0291,-9.99686 -17.85,-23.8075 -17.85,-39.0591 0,-15.2516 6.82087,-29.061 17.85,-39.0591z"/>
  <path class="fil6" d="M1344.43 1270.48c11.028,-11.028 26.2642,-17.85 43.0866,-17.85 16.8248,0 32.0587,6.82205 43.0866,17.85 11.028,11.028 17.85,26.263 17.85,43.0866 0,16.8236 -6.82205,32.0599 -17.8488,43.0866 -11.0291,11.0291 -26.263,17.8512 -43.0878,17.8512 -16.8248,0 -32.0587,-6.82205 -43.0866,-17.8512 -11.028,-11.0268 -17.85,-26.2618 -17.85,-43.0866 0,-16.8236 6.82205,-32.0587 17.85,-43.0866z"/>
  <path class="fil7" d="M1344.43 1268.82c11.028,-9.99686 26.2642,-16.1811 43.0866,-16.1811 16.8248,0 32.0587,6.18426 43.0866,16.1811 11.028,9.99804 17.85,23.8075 17.85,39.0591 0,15.2504 -6.82205,29.0622 -17.8488,39.0591 -11.0291,9.99686 -26.263,16.1811 -43.0878,16.1811 -16.8248,0 -32.0587,-6.18426 -43.0866,-16.1811 -11.028,-9.99686 -17.85,-23.8075 -17.85,-39.0591 0,-15.2516 6.82205,-29.061 17.85,-39.0591z"/>
  <polygon class="fil8" points="952.031,866.331 1416.54,866.331 1416.54,726.977 952.031,726.977 "/>
  <rect class="fil9" x="513.692" y="545.006" width="313.189" height="957.987" rx="36.8457" ry="36.8457"/>
 </g>
</svg>
