<?xml version="1.0" encoding="UTF-8" standalone="no"?>
<svg
   width="554.61499"
   height="619.75201"
   viewBox="-0.71625948 -11.240985 1.7176183 6.6084612"
   preserveAspectRatio="xMidYMid"
   version="1.1"
   id="svg5"
   sodipodi:docname="sqlite.svg"
   inkscape:version="1.4.1-rc (832c77b156, 2025-02-28)"
   xmlns:inkscape="http://www.inkscape.org/namespaces/inkscape"
   xmlns:sodipodi="http://sodipodi.sourceforge.net/DTD/sodipodi-0.dtd"
   xmlns="http://www.w3.org/2000/svg"
   xmlns:svg="http://www.w3.org/2000/svg">
  <sodipodi:namedview
     id="namedview5"
     pagecolor="#ffffff"
     bordercolor="#000000"
     borderopacity="0.25"
     inkscape:showpageshadow="2"
     inkscape:pageopacity="0.0"
     inkscape:pagecheckerboard="0"
     inkscape:deskcolor="#d1d1d1"
     inkscape:zoom="5.5642437"
     inkscape:cx="417.39725"
     inkscape:cy="98.485981"
     inkscape:window-width="1920"
     inkscape:window-height="972"
     inkscape:window-x="1920"
     inkscape:window-y="0"
     inkscape:window-maximized="1"
     inkscape:current-layer="svg5" />
  <defs
     id="defs3">
    <linearGradient
       x1="2.983"
       y1="0.52999997"
       x2="2.983"
       y2="4.744"
       id="a"
       gradientUnits="userSpaceOnUse"
       gradientTransform="translate(-3.1392678,-11.2218)">
      <stop
         stop-color="#97d9f6"
         offset="0%"
         id="stop1" />
      <stop
         stop-color="#0f80cc"
         offset="92.024%"
         id="stop2" />
      <stop
         stop-color="#0f80cc"
         offset="100%"
         id="stop3" />
    </linearGradient>
  </defs>
  <path
     d="m 1.8207318,-10.9318 h -4.113 c -0.276,0 -0.4999996,0.226 -0.4999996,0.5 v 4.535999 c 0,0.276 0.2259996,0.5 0.4999996,0.5 h 2.70999982 c -0.03,-1.348 0.43,-3.964 1.40400018,-5.539999 z"
     fill="#0f80cc"
     id="path3" />
  <path
     d="m 1.6707318,-10.7848 h -3.963 a 0.356,0.356 0 0 0 -0.3549996,0.355 v 4.204999 c 0.8979996,-0.345 2.24499942,-0.642 3.17699942,-0.628 A 28.93,28.93 0 0 1 1.6717318,-10.7848 Z"
     fill="url(#a)"
     id="path4"
     style="fill:url(#a)" />
  <path
     d="m 2.7807318,-11.0798 c -0.282,-0.25 -0.623,-0.15 -0.96,0.148 l -0.15,0.146 c -0.576,0.61 -1.10000018,1.741999 -1.27600018,2.606999 a 2.38,2.38 0 0 1 0.148,0.426 l 0.022,0.1 0.022,0.102 c 0,0 -0.005,-0.02 -0.026,-0.08 l -0.014,-0.04 a 0.461,0.461 0 0 0 -0.009,-0.022 4.717,4.717 0 0 0 -0.187,-0.352 8.789,8.789 0 0 0 -0.103,0.321 c 0.132,0.242 0.212,0.656 0.212,0.656 0,0 -0.007,-0.027 -0.04,-0.12 -0.03,-0.083 -0.176,-0.34 -0.21,-0.4 -0.06,0.22 -0.083,0.368 -0.062,0.404 0.04,0.07 0.08,0.2 0.115,0.324 a 7.52,7.52 0 0 1 0.132,0.666 l 0.005,0.062 a 6.11,6.11 0 0 0 0.015,0.75 c 0.026,0.313 0.075,0.582 0.137,0.726 l 0.042,-0.023 c -0.09,-0.284 -0.128,-0.655 -0.112,-1.084 0.025,-0.655 0.175,-1.445 0.45399998,-2.268 0.4730002,-1.253 1.1250002,-2.250999 1.7230002,-2.726999 -0.545,0.492 -1.282,2.083999 -1.502,2.672999 -0.24700018,0.66 -0.42200018,1.28 -0.52800018,1.873 0.182,-0.556 0.77000018,-0.796 0.77000018,-0.796 0,0 0.29,-0.356 0.626,-0.865 l -0.645,0.172 -0.208,0.092 c 0,0 0.53,-0.323 0.987,-0.47 0.627,-0.987 1.31,-2.389999 0.622,-3.001999"
     fill="#003b57"
     id="path5" />
</svg>
